<svg width="500" height="400" viewBox="0 0 500 400" fill="none" xmlns="http://www.w3.org/2000/svg">
  <defs>
    <linearGradient id="bgGradient" x1="0%" y1="0%" x2="100%" y2="100%">
      <stop offset="0%" style="stop-color:#667eea;stop-opacity:0.1" />
      <stop offset="100%" style="stop-color:#764ba2;stop-opacity:0.2" />
    </linearGradient>
    <linearGradient id="screenGradient" x1="0%" y1="0%" x2="100%" y2="100%">
      <stop offset="0%" style="stop-color:#1a1a1a;stop-opacity:1" />
      <stop offset="100%" style="stop-color:#2d2d2d;stop-opacity:1" />
    </linearGradient>
  </defs>
  
  <!-- Background -->
  <rect width="500" height="400" fill="url(#bgGradient)" rx="20"/>
  
  <!-- Desk -->
  <rect x="0" y="300" width="500" height="100" fill="#8B4513" opacity="0.3"/>
  
  <!-- Monitor Stand -->
  <rect x="200" y="280" width="100" height="30" fill="#666" rx="5"/>
  <rect x="230" y="300" width="40" height="20" fill="#555" rx="3"/>
  
  <!-- Monitor -->
  <rect x="150" y="120" width="200" height="140" fill="#333" rx="10"/>
  <rect x="160" y="130" width="180" height="100" fill="url(#screenGradient)" rx="5"/>
  
  <!-- Code on Screen -->
  <rect x="170" y="140" width="60" height="3" fill="#67d9ef" rx="1"/>
  <rect x="240" y="140" width="40" height="3" fill="#a6e22e" rx="1"/>
  <rect x="170" y="150" width="80" height="3" fill="#f92672" rx="1"/>
  <rect x="170" y="160" width="50" height="3" fill="#fd971f" rx="1"/>
  <rect x="230" y="160" width="70" height="3" fill="#67d9ef" rx="1"/>
  <rect x="170" y="170" width="90" height="3" fill="#a6e22e" rx="1"/>
  <rect x="170" y="180" width="30" height="3" fill="#f92672" rx="1"/>
  <rect x="210" y="180" width="60" height="3" fill="#67d9ef" rx="1"/>
  <rect x="170" y="190" width="100" height="3" fill="#fd971f" rx="1"/>
  <rect x="170" y="200" width="45" height="3" fill="#a6e22e" rx="1"/>
  <rect x="225" y="200" width="55" height="3" fill="#f92672" rx="1"/>
  
  <!-- Laptop -->
  <rect x="50" y="220" width="120" height="80" fill="#silver" rx="8"/>
  <rect x="55" y="225" width="110" height="60" fill="#1a1a1a" rx="5"/>
  <rect x="60" y="230" width="40" height="2" fill="#67d9ef" rx="1"/>
  <rect x="60" y="235" width="60" height="2" fill="#a6e22e" rx="1"/>
  <rect x="60" y="240" width="35" height="2" fill="#f92672" rx="1"/>
  <rect x="60" y="245" width="80" height="2" fill="#fd971f" rx="1"/>
  
  <!-- Coffee Cup -->
  <circle cx="380" cy="250" r="25" fill="#8B4513"/>
  <circle cx="380" cy="245" r="20" fill="#D2691E"/>
  <rect x="375" y="235" width="10" height="8" fill="#F5DEB3"/>
  <path d="M400 245 Q410 245 410 255 Q410 265 400 265" stroke="#8B4513" stroke-width="3" fill="none"/>
  
  <!-- Books -->
  <rect x="320" y="270" width="15" height="40" fill="#FF6B6B" rx="2"/>
  <rect x="340" y="275" width="15" height="35" fill="#4ECDC4" rx="2"/>
  <rect x="360" y="280" width="15" height="30" fill="#45B7D1" rx="2"/>
  
  <!-- Plant -->
  <ellipse cx="430" cy="290" rx="15" ry="8" fill="#8B4513"/>
  <ellipse cx="425" cy="285" rx="8" ry="12" fill="#228B22"/>
  <ellipse cx="435" cy="280" rx="6" ry="10" fill="#32CD32"/>
  <ellipse cx="430" cy="275" rx="5" ry="8" fill="#00FF00"/>
  
  <!-- Mouse -->
  <ellipse cx="280" cy="260" rx="12" ry="18" fill="#666"/>
  <rect x="275" y="250" width="10" height="8" fill="#555" rx="2"/>
  
  <!-- Keyboard -->
  <rect x="180" y="250" width="80" height="25" fill="#444" rx="3"/>
  <rect x="185" y="255" width="5" height="4" fill="#666" rx="1"/>
  <rect x="195" y="255" width="5" height="4" fill="#666" rx="1"/>
  <rect x="205" y="255" width="5" height="4" fill="#666" rx="1"/>
  <rect x="215" y="255" width="5" height="4" fill="#666" rx="1"/>
  <rect x="225" y="255" width="5" height="4" fill="#666" rx="1"/>
  <rect x="235" y="255" width="5" height="4" fill="#666" rx="1"/>
  <rect x="245" y="255" width="5" height="4" fill="#666" rx="1"/>
  
  <rect x="185" y="265" width="5" height="4" fill="#666" rx="1"/>
  <rect x="195" y="265" width="5" height="4" fill="#666" rx="1"/>
  <rect x="205" y="265" width="5" height="4" fill="#666" rx="1"/>
  <rect x="215" y="265" width="5" height="4" fill="#666" rx="1"/>
  <rect x="225" y="265" width="5" height="4" fill="#666" rx="1"/>
  <rect x="235" y="265" width="5" height="4" fill="#666" rx="1"/>
  
  <!-- Floating Elements -->
  <circle cx="80" cy="80" r="3" fill="#667eea" opacity="0.6"/>
  <circle cx="420" cy="60" r="2" fill="#764ba2" opacity="0.7"/>
  <circle cx="450" cy="120" r="2.5" fill="#667eea" opacity="0.5"/>
  
  <!-- Code Symbols -->
  <text x="30" y="50" font-family="monospace" font-size="20" fill="#667eea" opacity="0.6">&lt;/&gt;</text>
  <text x="420" y="40" font-family="monospace" font-size="16" fill="#764ba2" opacity="0.7">{}</text>
  <text x="460" y="180" font-family="monospace" font-size="14" fill="#667eea" opacity="0.5">$</text>
</svg>